<?xml version="1.0" ?><svg height="64" viewBox="0 0 64 64" width="64" xmlns="http://www.w3.org/2000/svg"><title/><g><path d="M50.447,30.991l-2.071-2.07L46.859,27.4l-.545-.545a1.426,1.426,0,0,1-.417-1.008V19.53A1.427,1.427,0,0,0,44.47,18.1H38.149a1.426,1.426,0,0,1-1.008-.417l-4.132-4.133a1.427,1.427,0,0,0-2.018,0l-3.423,3.423-.709.71a1.452,1.452,0,0,1-.188.154,1.427,1.427,0,0,1-.82.263H19.53A1.427,1.427,0,0,0,18.1,19.53v6.321a1.42,1.42,0,0,1-.313.881,1.4,1.4,0,0,1-.1.127l-3.28,3.279-.853.853a1.427,1.427,0,0,0,0,2.018l4.133,4.132a1.426,1.426,0,0,1,.417,1.008V44.47A1.427,1.427,0,0,0,19.53,45.9h6.321a1.426,1.426,0,0,1,1.008.417l4.132,4.133a1.427,1.427,0,0,0,2.018,0l1.68-1.681,2.452-2.452a1.426,1.426,0,0,1,1.008-.417H44.47A1.445,1.445,0,0,0,45.9,44.47V38.149a1.426,1.426,0,0,1,.417-1.008l4.133-4.132A1.427,1.427,0,0,0,50.447,30.991Z" fill="#e6f4e9"/><g><path d="M30.991,50.447l-4.132-4.133a1.426,1.426,0,0,0-1.008-.417H19.53A1.427,1.427,0,0,1,18.1,44.47V38.149a1.426,1.426,0,0,0-.417-1.008l-4.133-4.132a1.427,1.427,0,0,1,0-2.018l.853-.853,3.28-3.279a1.4,1.4,0,0,0,.1-.127,1.42,1.42,0,0,0,.313-.881V19.53A1.427,1.427,0,0,1,19.53,18.1h6.321a1.427,1.427,0,0,0,.82-.263,1.452,1.452,0,0,0,.188-.154l.709-.71,3.423-3.423A1.425,1.425,0,0,1,32,13.136V6.425a1.925,1.925,0,0,0-1.367.567l-5.6,5.6a2.02,2.02,0,0,1-1.367.566H15.094a1.934,1.934,0,0,0-1.934,1.934v8.569a1.927,1.927,0,0,1-.425,1.2,1.791,1.791,0,0,1-.141.172l-5.6,5.6a1.931,1.931,0,0,0,0,2.734l5.6,5.6a1.934,1.934,0,0,1,.566,1.367v8.569a1.934,1.934,0,0,0,1.934,1.934h8.569a1.934,1.934,0,0,1,1.367.566l5.6,5.6A1.925,1.925,0,0,0,32,57.575V50.864A1.425,1.425,0,0,1,30.991,50.447Z" fill="#2aab48"/><path d="M38.97,51.406a1.934,1.934,0,0,1,1.367-.566h8.569a1.957,1.957,0,0,0,1.934-1.934V40.337a1.934,1.934,0,0,1,.566-1.367l5.6-5.6a1.931,1.931,0,0,0,0-2.734L54.2,27.826l-2.8-2.8a1.934,1.934,0,0,1-.566-1.367V15.094a1.934,1.934,0,0,0-1.934-1.934H40.337a1.934,1.934,0,0,1-1.367-.566l-5.6-5.6A1.925,1.925,0,0,0,32,6.425v6.711a1.425,1.425,0,0,1,1.009.417l4.132,4.133a1.426,1.426,0,0,0,1.008.417H44.47A1.427,1.427,0,0,1,45.9,19.53v6.321a1.426,1.426,0,0,0,.417,1.008l.545.545,1.517,1.517,2.071,2.07a1.427,1.427,0,0,1,0,2.018l-4.133,4.132a1.426,1.426,0,0,0-.417,1.008V44.47A1.445,1.445,0,0,1,44.47,45.9H38.149a1.426,1.426,0,0,0-1.008.417l-2.452,2.452-1.68,1.681A1.425,1.425,0,0,1,32,50.864v6.711a1.925,1.925,0,0,0,1.367-.567Z" fill="#5fc076"/><path d="M27.568,16.976l-.709.71a1.452,1.452,0,0,1-.188.154,1.427,1.427,0,0,1-.82.263H19.53A1.427,1.427,0,0,0,18.1,19.53v6.321a1.42,1.42,0,0,1-.313.881,1.4,1.4,0,0,1-.1.127l-3.28,3.279-.853.853a1.427,1.427,0,0,0,0,2.018l4.133,4.132a1.426,1.426,0,0,1,.417,1.008V44.47A1.427,1.427,0,0,0,19.53,45.9h6.321a1.426,1.426,0,0,1,1.008.417l4.132,4.133A1.425,1.425,0,0,0,32,50.864V13.136a1.425,1.425,0,0,0-1.009.417Z" fill="#caead1"/></g><path d="M51.406,38.97l5.6-5.6a1.931,1.931,0,0,0,0-2.734l-5.6-5.6a1.934,1.934,0,0,1-.566-1.367V15.094a1.934,1.934,0,0,0-1.934-1.934H40.337a1.934,1.934,0,0,1-1.367-.566l-5.6-5.6a1.931,1.931,0,0,0-2.734,0l-5.6,5.6a1.934,1.934,0,0,1-1.367.566H15.094a1.934,1.934,0,0,0-1.934,1.934v8.569a1.934,1.934,0,0,1-.566,1.367l-5.6,5.6a1.931,1.931,0,0,0,0,2.734l5.6,5.6a1.934,1.934,0,0,1,.566,1.367v8.569a1.934,1.934,0,0,0,1.934,1.934h8.569a1.934,1.934,0,0,1,1.367.566l5.6,5.6a1.931,1.931,0,0,0,2.734,0l5.6-5.6a1.934,1.934,0,0,1,1.367-.566h8.569a1.934,1.934,0,0,0,1.934-1.934V40.337A1.934,1.934,0,0,1,51.406,38.97Z" fill="none" stroke="#231f20" stroke-linecap="round" stroke-linejoin="round" stroke-width="2"/><path d="M50.447,30.991l-2.071-2.07L46.859,27.4l-.545-.545a1.426,1.426,0,0,1-.417-1.008V19.53A1.427,1.427,0,0,0,44.47,18.1H38.149a1.426,1.426,0,0,1-1.008-.417l-4.132-4.133a1.427,1.427,0,0,0-2.018,0l-3.423,3.423-.709.71a1.452,1.452,0,0,1-.188.154,1.427,1.427,0,0,1-.82.263H19.53A1.427,1.427,0,0,0,18.1,19.53v6.321a1.42,1.42,0,0,1-.313.881,1.4,1.4,0,0,1-.1.127l-3.28,3.279-.853.853a1.427,1.427,0,0,0,0,2.018l4.133,4.132a1.426,1.426,0,0,1,.417,1.008V44.47A1.427,1.427,0,0,0,19.53,45.9h6.321a1.426,1.426,0,0,1,1.008.417l4.132,4.133a1.427,1.427,0,0,0,2.018,0l1.68-1.681,2.452-2.452a1.426,1.426,0,0,1,1.008-.417H44.47A1.445,1.445,0,0,0,45.9,44.47V38.149a1.426,1.426,0,0,1,.417-1.008l4.133-4.132A1.427,1.427,0,0,0,50.447,30.991Z" fill="none" stroke="#231f20" stroke-linecap="round" stroke-linejoin="round" stroke-width="2"/><g><path d="M26.694,26.6s.633,7.256-1.96,8.68c-2.16,1.186-4.592.112-3.584-3.024" fill="none" stroke="#231f20" stroke-linecap="round" stroke-linejoin="round" stroke-width="2"/><path d="M35.6,26.393a31.111,31.111,0,0,0-1.243,5.228c-.128,1.8-.814,4.5,2.957,4.2a12.992,12.992,0,0,0,6.25-2.459.3.3,0,0,0-.089-.528,6.384,6.384,0,0,1-1.832-.87c-.9-.686-3.514-2.228-4.586-.214" fill="none" stroke="#231f20" stroke-linecap="round" stroke-linejoin="round" stroke-width="2"/><path d="M29.477,27.422s4.617,2.105,4.2,5.442c-.2,1.618-2.568,4.87-5.443,2.271" fill="none" stroke="#231f20" stroke-linecap="round" stroke-linejoin="round" stroke-width="2"/></g></g></svg>