<?xml version="1.0" standalone="no"?>
<!DOCTYPE svg PUBLIC "-//W3C//DTD SVG 20010904//EN"
 "http://www.w3.org/TR/2001/REC-SVG-20010904/DTD/svg10.dtd">
<svg version="1.0" xmlns="http://www.w3.org/2000/svg"
 width="512.000000pt" height="512.000000pt" viewBox="0 0 512.000000 512.000000"
 preserveAspectRatio="xMidYMid meet">

<g transform="translate(0.000000,512.000000) scale(0.100000,-0.100000)"
fill="#000000" stroke="none">
<path d="M1551 4824 c-20 -26 -21 -39 -21 -299 0 -252 1 -275 19 -296 26 -32
86 -32 112 0 16 19 19 40 19 121 0 83 3 101 21 124 28 36 80 36 108 0 18 -23
21 -41 21 -121 0 -52 4 -103 10 -113 16 -29 67 -42 100 -25 37 19 40 30 40
153 0 82 -5 116 -19 147 -41 90 -127 141 -226 133 l-55 -5 0 77 c0 94 -21 130
-75 130 -24 0 -39 -7 -54 -26z"/>
<path d="M3461 4824 c-17 -22 -21 -41 -21 -104 l0 -77 -55 5 c-199 16 -319
-210 -193 -363 17 -19 49 -45 71 -57 41 -21 61 -23 187 -20 25 1 58 1 74 0 20
0 36 7 48 22 16 20 18 46 18 295 0 260 -1 273 -21 299 -15 19 -30 26 -54 26
-24 0 -39 -7 -54 -26z m-42 -350 c42 -54 13 -118 -54 -118 -67 0 -96 64 -54
118 15 19 30 26 54 26 24 0 39 -7 54 -26z"/>
<path d="M255 4683 c-116 -42 -200 -129 -235 -243 -20 -64 -20 -85 -18 -1100
l3 -1035 27 -75 c14 -41 81 -190 148 -331 122 -257 136 -279 184 -279 28 0 66
41 66 70 0 17 -55 147 -126 297 -69 147 -132 296 -140 330 -12 53 -14 219 -12
1070 3 917 5 1011 20 1038 77 142 264 167 366 50 18 -20 39 -49 45 -64 9 -19
13 -263 17 -921 l5 -895 28 -60 c24 -52 77 -109 382 -415 388 -389 399 -403
415 -534 12 -94 28 -116 86 -116 82 0 88 152 11 310 -27 57 -75 109 -388 425
-298 302 -359 368 -374 407 -70 188 130 363 311 273 37 -18 167 -143 540 -517
279 -280 510 -521 536 -558 62 -88 112 -192 145 -297 l27 -88 4 -503 3 -502
-755 0 c-416 0 -756 2 -756 4 0 3 7 35 16 73 24 102 15 284 -19 383 -37 109
-263 582 -288 603 -12 9 -32 17 -46 17 -29 0 -73 -41 -73 -69 0 -10 56 -138
124 -283 162 -347 161 -343 161 -503 -1 -118 -3 -136 -29 -200 -39 -99 -41
-116 -16 -148 l21 -27 880 0 c575 0 887 4 899 10 36 19 40 73 40 500 -1 592
-13 712 -98 908 -80 186 -112 224 -661 775 -278 280 -526 522 -551 538 -25 17
-64 35 -87 42 l-43 11 0 510 c0 571 -1 576 -69 676 -44 64 -109 114 -181 139
-48 17 -54 22 -74 73 -28 69 -52 103 -111 157 -66 61 -123 83 -225 88 -64 3
-97 -1 -135 -14z m579 -499 c63 -64 61 -39 64 -611 3 -511 2 -523 -17 -523
-10 0 -44 -13 -75 -29 l-56 -30 0 625 0 625 28 -15 c15 -8 40 -27 56 -42z"/>
<path d="M4631 4684 c-117 -41 -209 -141 -254 -274 -2 -8 -24 -20 -48 -27 -63
-17 -147 -80 -190 -143 -68 -100 -69 -105 -69 -676 l0 -510 -42 -11 c-24 -7
-63 -25 -88 -42 -25 -16 -273 -258 -551 -538 -549 -551 -581 -589 -661 -775
-85 -196 -97 -316 -98 -908 0 -427 4 -481 40 -500 12 -6 324 -10 899 -10 l880
0 21 27 c25 32 23 49 -16 148 -26 65 -28 80 -28 205 0 112 4 145 21 190 11 31
158 348 326 705 168 358 314 675 324 705 17 52 18 121 21 1090 2 1015 2 1036
-18 1100 -36 117 -130 211 -245 246 -62 18 -168 17 -224 -2z m204 -153 c45
-21 89 -61 113 -106 15 -27 17 -121 20 -1038 2 -857 0 -1017 -12 -1071 -10
-40 -127 -300 -321 -712 -169 -357 -318 -683 -332 -724 -34 -99 -43 -281 -19
-383 9 -38 16 -70 16 -73 0 -2 -340 -4 -756 -4 l-755 0 3 502 4 503 27 88 c33
105 83 209 145 297 26 37 257 278 536 558 373 374 503 499 540 517 141 70 304
-17 323 -173 12 -104 8 -109 -386 -507 -313 -316 -361 -368 -388 -425 -38 -78
-52 -136 -53 -212 0 -65 21 -98 64 -98 58 0 74 22 86 116 16 131 27 145 415
534 305 306 358 363 382 415 l28 60 5 895 c4 658 8 902 17 921 19 44 75 101
118 120 51 24 129 24 180 0z m-465 -915 l0 -625 -56 30 c-31 16 -65 29 -75 29
-18 0 -19 16 -19 503 0 295 4 516 10 536 14 50 49 96 94 125 22 14 41 26 43
26 2 0 3 -281 3 -624z"/>
<path d="M2183 4625 c-73 -37 -123 -115 -123 -192 0 -124 98 -227 215 -226 28
0 70 1 95 1 25 1 58 1 74 0 20 0 36 7 48 22 16 20 18 43 18 195 0 159 -2 174
-21 199 -22 27 -75 36 -95 16 -8 -8 -19 -8 -38 0 -48 18 -118 12 -173 -15z
m156 -151 c42 -54 13 -118 -54 -118 -67 0 -96 64 -54 118 15 19 30 26 54 26
24 0 39 -7 54 -26z"/>
<path d="M2631 4624 c-19 -25 -21 -40 -21 -199 0 -154 2 -175 19 -196 13 -17
29 -23 56 -23 61 0 75 26 75 144 0 83 3 101 21 124 15 19 30 26 54 26 24 0 39
-7 54 -26 18 -23 21 -41 21 -120 0 -109 3 -120 41 -139 32 -17 73 -7 95 23 17
21 19 200 3 255 -13 49 -73 115 -124 138 -45 21 -119 24 -161 9 -19 -8 -30 -8
-38 0 -20 20 -73 11 -95 -16z"/>
<path d="M1413 4035 c-13 -9 -27 -32 -32 -53 -19 -73 -111 -570 -111 -600 0
-62 71 -94 119 -54 17 13 28 52 54 192 l34 175 21 -70 c11 -38 34 -116 50
-173 17 -57 38 -112 47 -122 25 -28 68 -34 104 -16 32 17 38 31 107 276 14 52
28 96 29 98 1 2 17 -73 35 -165 37 -191 50 -216 109 -211 23 2 40 12 54 30
l20 26 -61 319 c-56 292 -63 320 -87 341 -33 28 -84 29 -113 2 -21 -20 -29
-42 -92 -265 -17 -60 -34 -119 -37 -130 -4 -12 -27 55 -63 180 -62 215 -74
235 -134 235 -17 0 -41 -7 -53 -15z"/>
<path d="M2356 4028 c-18 -17 -58 -110 -141 -327 -63 -167 -115 -313 -115
-323 0 -53 52 -88 101 -68 26 11 39 31 69 108 l12 32 129 0 129 0 10 -27 c34
-94 59 -123 106 -123 23 0 64 46 64 73 0 22 -207 583 -233 632 -26 50 -89 60
-131 23z m88 -325 c16 -43 31 -84 33 -90 4 -10 -13 -13 -67 -13 -39 0 -70 4
-68 8 2 4 16 45 33 90 16 45 32 82 35 82 3 0 18 -35 34 -77z"/>
<path d="M2813 4028 c-23 -24 -23 -26 -23 -350 0 -400 -11 -371 143 -376 58
-2 130 1 161 8 163 34 266 195 253 400 -8 147 -68 254 -170 308 -48 25 -63 27
-197 30 -142 4 -145 3 -167 -20z m297 -147 c57 -30 85 -97 85 -201 0 -72 -4
-94 -25 -135 -33 -64 -88 -95 -172 -95 l-58 0 0 225 0 225 68 0 c47 0 78 -6
102 -19z"/>
<path d="M3471 4024 c-20 -26 -21 -38 -21 -340 0 -208 4 -321 11 -337 18 -39
50 -47 198 -47 125 0 141 2 165 21 33 26 36 79 6 109 -17 17 -33 20 -125 20
l-105 0 0 75 0 75 89 0 c80 0 93 3 117 23 35 31 38 82 5 109 -19 15 -41 18
-117 18 l-94 0 0 75 0 75 99 0 c84 0 102 3 125 21 33 26 36 79 6 109 -18 18
-33 20 -179 20 l-160 0 -20 -26z"/>
<path d="M2273 3131 c-100 -34 -180 -108 -225 -207 -19 -41 -23 -66 -23 -154
1 -115 17 -171 86 -287 93 -155 420 -427 492 -409 35 8 172 100 257 172 123
104 218 226 266 342 25 60 28 79 29 182 0 108 -2 119 -29 173 -36 71 -108 140
-184 175 -49 23 -70 27 -152 27 -78 0 -104 -4 -148 -24 -43 -19 -57 -22 -75
-13 -86 45 -204 54 -294 23z m203 -146 c19 -8 47 -24 61 -35 36 -28 75 -25
128 12 35 25 58 33 104 36 73 5 116 -8 169 -53 86 -74 97 -201 28 -340 -47
-95 -164 -222 -286 -309 -92 -67 -89 -67 -186 5 -258 191 -375 414 -300 575
48 103 177 153 282 109z"/>
</g>
</svg>
