<?xml version="1.0" standalone="no"?>
<!DOCTYPE svg PUBLIC "-//W3C//DTD SVG 20010904//EN"
 "http://www.w3.org/TR/2001/REC-SVG-20010904/DTD/svg10.dtd">
<svg version="1.0" xmlns="http://www.w3.org/2000/svg"
 width="512.000000pt" height="512.000000pt" viewBox="0 0 512.000000 512.000000"
 preserveAspectRatio="xMidYMid meet">

<g transform="translate(0.000000,512.000000) scale(0.100000,-0.100000)"
fill="#000000" stroke="none">
<path d="M1421 5109 c-229 -45 -392 -281 -353 -511 24 -136 111 -260 227 -319
l65 -34 0 -497 c0 -326 -4 -506 -11 -525 -5 -15 -223 -242 -483 -503 -266
-268 -493 -504 -519 -541 -64 -90 -130 -235 -158 -344 -33 -125 -33 -339 -1
-469 100 -402 419 -688 839 -751 79 -12 229 -15 759 -15 l661 0 -48 -94 c-63
-122 -139 -316 -139 -356 0 -50 35 -107 80 -130 51 -26 95 -25 145 3 32 18 45
35 67 87 92 220 116 269 177 371 l69 114 488 6 c507 6 541 8 697 54 441 128
793 480 923 924 44 150 54 265 54 645 0 337 -1 351 -21 394 -16 33 -32 49 -63
63 -79 36 -116 22 -250 -91 -74 -62 -217 -134 -321 -161 -65 -17 -126 -23
-325 -29 -135 -4 -253 -11 -264 -15 -15 -7 -93 67 -423 396 -227 226 -411 418
-419 436 -11 26 -14 125 -14 530 l0 498 65 34 c160 82 257 277 227 455 -31
192 -174 340 -361 376 -66 12 -1306 12 -1370 -1z m1359 -309 c45 -23 80 -80
80 -130 0 -50 -35 -107 -80 -130 -38 -19 -58 -20 -670 -20 -612 0 -632 1 -670
20 -45 23 -80 80 -80 130 0 48 35 107 78 129 36 19 60 20 670 21 615 0 634 -1
672 -20z m-220 -1069 c0 -285 4 -511 10 -542 6 -30 24 -83 42 -119 27 -57 75
-109 389 -425 l357 -360 -87 -48 c-124 -68 -245 -162 -343 -266 l-85 -90 -69
68 c-227 222 -561 197 -767 -58 -64 -78 -119 -111 -188 -111 -61 0 -136 39
-174 91 -215 294 -611 305 -835 24 -61 -77 -102 -104 -169 -112 -56 -6 -141
19 -141 42 0 7 19 50 42 96 40 82 54 97 537 584 360 363 504 514 524 551 54
103 57 135 57 672 l0 492 450 0 450 0 0 -489z m2097 -1736 c-4 -173 -8 -213
-30 -296 -51 -193 -143 -355 -277 -489 -133 -134 -294 -225 -489 -278 -93 -25
-107 -26 -445 -30 l-349 -4 64 54 c153 128 299 215 554 329 225 100 412 213
570 346 83 69 108 111 102 170 -8 78 -70 133 -152 133 -45 0 -63 -9 -150 -80
-154 -124 -286 -203 -531 -314 -247 -112 -416 -212 -569 -340 -33 -27 -67 -56
-76 -63 -15 -13 -16 -9 -12 34 13 125 67 288 135 405 149 258 392 436 688 504
39 9 160 18 305 24 311 11 440 36 600 118 l60 30 4 -26 c1 -15 1 -117 -2 -227z
m-3344 -220 c23 -11 60 -45 92 -85 62 -77 108 -116 182 -154 111 -56 230 -69
353 -40 103 24 178 72 272 175 89 98 113 115 177 125 88 14 146 -19 248 -142
l41 -51 -33 -89 c-51 -135 -76 -275 -82 -457 l-6 -158 -746 3 c-733 3 -747 4
-824 25 -129 37 -231 96 -323 187 -104 105 -164 216 -189 350 -8 38 -7 39 16
32 55 -17 175 -18 244 -2 108 26 180 72 281 181 98 105 137 128 214 122 25 -2
62 -12 83 -22z"/>
</g>
</svg>
