<?xml version="1.0" standalone="no"?>
<!DOCTYPE svg PUBLIC "-//W3C//DTD SVG 20010904//EN"
 "http://www.w3.org/TR/2001/REC-SVG-20010904/DTD/svg10.dtd">
<svg version="1.0" xmlns="http://www.w3.org/2000/svg"
 width="512.000000pt" height="512.000000pt" viewBox="0 0 512.000000 512.000000"
 preserveAspectRatio="xMidYMid meet">

<g transform="translate(0.000000,512.000000) scale(0.100000,-0.100000)"
fill="#000000" stroke="none">
<path d="M1301 5104 c-126 -34 -249 -132 -305 -242 -50 -98 -56 -150 -56 -489
l0 -313 -54 0 c-63 0 -179 -21 -251 -45 -295 -100 -523 -344 -607 -650 -31
-114 -31 -345 0 -458 27 -99 89 -232 130 -278 92 -105 312 -127 542 -53 41 13
80 24 85 24 6 0 29 -42 50 -92 22 -51 55 -115 72 -142 l33 -48 0 -169 c0 -133
-3 -169 -13 -169 -24 0 -201 -91 -263 -135 -81 -58 -93 -89 -53 -139 32 -40
66 -34 159 28 132 89 285 143 463 166 112 14 240 13 255 -2 17 -17 15 -159 -4
-287 -59 -402 -301 -690 -673 -801 -78 -23 -244 -50 -311 -50 l-45 0 307 308
c200 200 309 316 313 334 6 22 1 33 -24 59 -26 25 -37 30 -59 24 -17 -4 -135
-114 -336 -313 l-308 -307 6 92 c10 163 55 326 125 460 37 69 38 82 10 117
-24 31 -78 36 -104 10 -24 -25 -89 -160 -118 -247 -47 -140 -62 -237 -62 -422
0 -187 8 -224 53 -244 41 -19 255 -26 368 -11 86 10 245 46 295 65 13 5 18 -4
23 -45 18 -135 95 -244 214 -302 l67 -33 408 -3 409 -3 61 -52 c170 -144 397
-232 633 -244 268 -14 559 86 747 256 l40 36 356 5 356 5 61 28 c77 36 154
113 191 192 l28 60 3 1091 2 1092 158 4 c146 3 161 5 217 31 79 37 156 114
192 191 l28 61 0 890 0 890 -28 61 c-36 77 -113 154 -192 191 l-60 28 -1740 2
c-1496 2 -1748 0 -1794 -13z m3106 -201 l-32 -68 -3 -418 -3 -417 25 -25 c32
-32 70 -32 101 0 l25 24 0 388 c0 253 4 402 11 428 23 81 124 155 213 155 87
0 189 -74 214 -156 17 -59 17 -1679 0 -1738 -16 -54 -90 -128 -144 -144 -23
-7 -97 -12 -168 -12 l-126 0 0 390 0 391 -25 24 c-33 34 -77 33 -104 -1 l-21
-27 0 -1525 c0 -1172 -3 -1534 -12 -1566 -16 -54 -90 -128 -144 -144 -28 -8
-125 -12 -297 -12 l-256 0 26 45 c70 126 18 301 -110 366 -68 35 -1512 557
-1560 564 -104 16 -220 -49 -272 -150 -29 -58 -30 -61 -29 -204 1 -211 45
-377 144 -541 l48 -80 -310 0 c-336 0 -363 3 -423 52 -53 44 -78 100 -82 188
l-4 75 53 32 c241 144 415 411 483 738 23 112 32 331 15 389 -17 60 -66 110
-124 125 -74 18 -279 11 -398 -15 l-28 -6 0 110 0 109 60 6 c33 4 79 16 103
28 97 49 274 159 298 186 50 53 73 112 73 188 0 82 -13 112 -104 239 -33 46
-60 86 -60 88 0 3 38 43 83 89 174 175 244 335 207 471 -16 57 -100 174 -182
255 -124 122 -244 186 -466 249 -11 3 -13 69 -10 341 3 322 4 340 25 385 26
55 81 119 130 149 80 49 18 48 1655 48 l1537 1 -32 -67z m-3326 -1008 c191
-40 362 -152 475 -312 70 -97 69 -153 -3 -268 l-38 -60 -7 60 c-18 141 -141
296 -297 373 -99 50 -140 54 -170 16 -42 -54 -20 -88 87 -140 53 -25 95 -55
133 -94 71 -73 99 -129 99 -202 0 -64 -9 -118 -20 -118 -4 0 -20 19 -35 42
-76 114 -165 180 -267 196 -159 24 -310 -55 -377 -197 -22 -48 -26 -69 -26
-151 1 -88 3 -100 38 -174 21 -44 35 -81 32 -84 -7 -7 -89 26 -127 51 -41 28
-71 73 -98 145 -84 224 23 480 244 587 42 20 81 45 86 55 27 51 -5 110 -59
110 -39 0 -108 -30 -180 -79 -161 -110 -271 -318 -271 -516 0 -172 86 -360
194 -426 l29 -18 -27 -7 c-42 -10 -148 1 -189 21 -42 20 -73 68 -110 170 -141
393 54 824 444 982 130 53 300 67 440 38z m12 -688 c39 -30 363 -474 379 -520
13 -35 -3 -95 -29 -120 -35 -30 -268 -159 -299 -164 -38 -6 -97 20 -116 50 -8
12 -67 139 -131 283 -95 211 -117 269 -117 306 0 60 14 95 53 137 47 49 82 62
158 58 54 -2 73 -8 102 -30z m926 -1936 c11 -7 11 -20 2 -73 -61 -350 151
-718 485 -844 284 -107 590 -47 810 159 55 51 153 180 166 218 6 19 45 -6 68
-44 41 -67 21 -123 -88 -238 -90 -96 -169 -154 -283 -209 -136 -65 -220 -83
-389 -84 -122 -1 -159 3 -229 22 -275 75 -490 251 -608 498 -57 121 -83 224
-90 361 -8 154 16 216 92 236 32 8 49 7 64 -2z m746 -268 c314 -114 572 -208
574 -209 11 -8 -61 -107 -121 -166 -123 -122 -295 -185 -469 -175 -353 22
-619 335 -584 687 4 42 12 70 19 70 6 0 268 -93 581 -207z"/>
<path d="M2021 4694 c-112 -56 -159 -214 -75 -253 14 -6 31 -11 38 -11 24 0
66 41 66 64 0 34 37 76 66 76 31 0 64 -33 64 -65 0 -28 40 -75 64 -75 30 0 65
23 76 51 22 51 -15 150 -72 192 -72 53 -147 60 -227 21z"/>
<path d="M3249 4692 c-61 -32 -103 -91 -114 -159 -6 -39 -4 -46 23 -73 17 -16
39 -30 50 -30 29 0 72 38 72 64 0 34 37 76 66 76 30 0 64 -33 64 -63 0 -56 58
-89 110 -62 86 45 12 227 -107 263 -63 19 -106 14 -164 -16z"/>
<path d="M2390 4440 c-44 -44 -13 -161 57 -219 68 -56 176 -65 250 -21 33 19
33 19 74 -2 145 -75 319 23 319 180 0 59 -20 82 -72 82 -42 0 -59 -17 -73 -74
-14 -51 -50 -75 -92 -60 -21 7 -32 20 -43 55 -20 62 -36 79 -74 79 -44 0 -64
-17 -79 -70 -26 -90 -109 -95 -137 -9 -8 26 -21 54 -29 63 -19 23 -76 21 -101
-4z"/>
<path d="M1936 3229 c-52 -41 -19 -129 49 -129 39 0 69 33 69 75 0 67 -64 96
-118 54z"/>
<path d="M2305 3225 c-14 -13 -25 -36 -25 -50 0 -14 11 -37 25 -50 l24 -25
676 0 676 0 24 25 c32 31 32 69 0 100 l-24 25 -676 0 -676 0 -24 -25z"/>
<path d="M1936 2829 c-52 -41 -19 -129 49 -129 39 0 69 33 69 75 0 67 -64 96
-118 54z"/>
<path d="M2305 2825 c-14 -13 -25 -36 -25 -50 0 -14 11 -37 25 -50 l24 -25
676 0 676 0 24 25 c32 31 32 69 0 100 l-24 25 -676 0 -676 0 -24 -25z"/>
<path d="M1936 2429 c-52 -41 -19 -129 49 -129 39 0 69 33 69 75 0 67 -64 96
-118 54z"/>
<path d="M2305 2425 c-14 -13 -25 -36 -25 -50 0 -14 11 -37 25 -50 l24 -25
676 0 676 0 24 25 c32 31 32 69 0 100 l-24 25 -676 0 -676 0 -24 -25z"/>
<path d="M1936 2029 c-52 -41 -19 -129 49 -129 39 0 69 33 69 75 0 67 -64 96
-118 54z"/>
<path d="M2305 2025 c-14 -13 -25 -36 -25 -50 0 -14 11 -37 25 -50 l24 -25
676 0 676 0 24 25 c32 31 32 69 0 100 l-24 25 -676 0 -676 0 -24 -25z"/>
<path d="M2375 995 c-47 -46 -17 -125 49 -125 29 0 76 39 76 64 0 28 -22 64
-47 75 -36 16 -51 14 -78 -14z"/>
<path d="M2955 810 c-49 -19 -64 -82 -30 -120 24 -26 79 -26 105 0 53 53 -6
148 -75 120z"/>
<path d="M2623 780 c-72 -29 -45 -140 34 -140 32 0 73 37 73 66 0 26 -23 62
-47 73 -28 13 -30 13 -60 1z"/>
</g>
</svg>
